<?xml version="1.0" encoding="utf-8"?>
<!-- Generator: Adobe Illustrator 16.0.0, SVG Export Plug-In . SVG Version: 6.00 Build 0)  -->
<!DOCTYPE svg PUBLIC "-//W3C//DTD SVG 1.1//EN" "http://www.w3.org/Graphics/SVG/1.1/DTD/svg11.dtd">
<svg version="1.1" xmlns="http://www.w3.org/2000/svg" xmlns:xlink="http://www.w3.org/1999/xlink" x="0px" y="0px" width="1000px"
	 height="1000px" viewBox="0 0 1000 1000" enable-background="new 0 0 1000 1000" xml:space="preserve">
<g id="Layer_1" display="none">
	<polygon display="inline" fill="#231815" points="350,759.807 200,500 350,240.193 649.999,240.193 800,500 649.999,759.807"/>
	<polygon display="inline" fill="#FFFFFF" points="425,629.904 350,500 425,370.096 575,370.096 650,500 575,629.904"/>
	<line display="inline" fill="none" x1="200" y1="500" x2="800" y2="500"/>
	<line display="inline" fill="none" x1="350" y1="240.193" x2="649.999" y2="759.807"/>
	<line display="inline" fill="none" x1="350" y1="759.807" x2="649.999" y2="240.193"/>
</g>
<g id="Layer_2">
	<polygon display="none" fill="#FFF000" points="425,629.904 350,500 425,370.096 575,370.096 650,500 575,629.904"/>
	<polygon display="none" fill="#231815" points="350,759.807 200,500 350,240.193 649.999,240.193 800,500 649.999,759.807"/>
	<g display="none">
		<path display="inline" d="M808.66,495L658.659,235.193c-1.786-3.094-5.088-5-8.66-5H350c-3.573,0-6.874,1.906-8.66,5L191.34,495
			c-1.787,3.094-1.787,6.906,0,10l150,259.806c1.786,3.094,5.087,5,8.66,5h299.999c3.572,0,6.874-1.906,8.66-5L808.66,505.001
			C810.446,501.906,810.446,498.095,808.66,495z M658.66,505l-75,129.904c-0.893,1.547-2.165,2.797-3.66,3.66l69.999,121.242
			L580,638.564c-1.495,0.863-3.214,1.34-5,1.34H425c-1.787,0-3.505-0.477-5-1.34l-70,121.242l70-121.242
			c-1.495-0.863-2.767-2.113-3.66-3.66l-75-129.904c-0.894-1.547-1.34-3.273-1.34-5H200h140c0-1.727,0.447-3.453,1.34-5l75-129.904
			c0.893-1.547,2.165-2.797,3.66-3.66l-70-121.243l70,121.243c1.495-0.863,3.213-1.34,5-1.34h150c1.786,0,3.504,0.477,4.999,1.339
			l70-121.243l-70,121.243c1.496,0.863,2.768,2.114,3.661,3.661l75,129.904c0.893,1.547,1.34,3.273,1.34,5h140H660
			C660,501.727,659.554,503.453,658.66,505z"/>
		<polygon fill="#FFFFFF" points="500,500 500,500 500,500"/>
		<path fill="#FFFFFF" d="M500,500l-80-138.564c-1.495,0.863-2.767,2.113-3.66,3.66l-75,129.904c-0.893,1.547-1.34,3.273-1.34,5H500
			L500,500z"/>
		<path fill="#FFFFFF" d="M579.999,361.436c-1.495-0.863-3.213-1.339-4.999-1.339H425c-1.787,0-3.505,0.477-5,1.34L500,500
			L579.999,361.436z"/>
		<path fill="#FFFFFF" d="M500,500l-80,138.564c1.495,0.863,3.214,1.34,5,1.34h150c1.786,0,3.505-0.477,5-1.34L500,500L500,500z"/>
		<path fill="#FFFFFF" d="M583.66,365.096c-0.894-1.547-2.165-2.797-3.661-3.661L500,500l0,0h160c0-1.727-0.447-3.453-1.34-5
			L583.66,365.096z"/>
		<path fill="#FFFFFF" d="M340,500c0,1.727,0.446,3.453,1.34,5l75,129.904c0.893,1.547,2.165,2.797,3.66,3.66L500,500H340z"/>
		<path fill="#FFFFFF" d="M580,638.564c1.495-0.863,2.768-2.113,3.66-3.66l75-129.904c0.894-1.547,1.34-3.273,1.34-5H500
			L580,638.564z"/>
	</g>
	<g>
		<path fill="#549DD6" d="M703.457,391.128v217.743c0,2.593-0.692,5.086-1.945,7.257L877.51,717.739L701.512,616.128
			c-1.254,2.171-3.068,4.018-5.314,5.314l-188.57,108.871c-2.245,1.295-4.751,1.943-7.258,1.943L500.37,950
			c2.506,0,5.012-0.648,7.257-1.944l377.141-217.743c4.491-2.594,7.258-7.386,7.258-12.573v-435.48c0-2.494-0.653-4.889-1.816-7
			L701.512,383.872C702.765,386.042,703.457,388.535,703.457,391.128z"/>
		<path fill="#F9BA16" d="M884.768,269.688L507.627,51.946c-4.492-2.594-10.023-2.594-14.517,0L115.974,269.687
			c-1.89,1.091-3.451,2.587-4.653,4.322l187.907,109.862c1.253-2.172,3.068-4.018,5.313-5.314l188.571-108.871
			c2.245-1.299,4.751-1.945,7.256-1.945c2.507,0,5.013,0.648,7.258,1.945l188.57,108.871c2.246,1.296,4.061,3.143,5.314,5.314
			l188.697-108.613C888.952,272.979,887.101,271.033,884.768,269.688z"/>
		<path fill="#DB5637" d="M500.369,732.257v203.227V732.257c-2.506,0-5.012-0.647-7.257-1.943L304.542,621.442
			c-2.245-1.296-4.06-3.144-5.313-5.313l-175.996,101.61l175.996-101.61c-1.252-2.17-1.945-4.665-1.945-7.258V391.128
			c0-2.593,0.692-5.088,1.945-7.257L123.232,282.258l175.996,101.613L111.321,274.009c-1.653,2.389-2.605,5.245-2.605,8.249v435.481
			c0,5.188,2.768,9.979,7.258,12.573l377.135,217.743c2.247,1.297,4.754,1.944,7.261,1.944L500.369,732.257z"/>
	</g>
</g>
</svg>
